<?xml version="1.0" encoding="utf-8"?>
<!-- Generator: Adobe Illustrator 24.1.2, SVG Export Plug-In . SVG Version: 6.00 Build 0)  -->
<svg version="1.1" id="Camada_1" xmlns="http://www.w3.org/2000/svg" xmlns:xlink="http://www.w3.org/1999/xlink" x="0px" y="0px"
	 viewBox="0 0 534.1 139.6" style="enable-background:new 0 0 534.1 139.6;" xml:space="preserve">
<style type="text/css">
	.st0{fill:#00C0F9;}
	.st1{fill:#FFFFFF;}
</style>
<g id="Icone_Amarelo">
	<rect x="118.3" y="93.1" class="st0" width="25.4" height="23.3"/>
</g>
<path class="st1" d="M79.2,81.9c-0.7-2.9-1.9-5.2-3.5-7c-1.6-1.8-3.9-3-6.7-3.8c-2.8-0.7-6.3-1.1-10.5-1.1H0v69.4h13.7V83.8h44.8
	c3.1,0.3,5.2,0.6,6.4,1.9c1.2,1.3,1.8,2.6,1.8,6v3.5c0,3.4-0.6,5.8-1.8,7s-3.3,1.8-6.4,1.8H21v13.6h37.5c4.2,0,7.8-0.4,10.5-1.1
	c2.8-0.7,5-2,6.7-3.7c1.7-1.8,2.8-4.1,3.5-7c0.7-2.9,1.1-6.5,1.1-10.7v-3.5C80.3,87.4,79.9,84.8,79.2,81.9z"/>
<path class="st1" d="M113.7,139.6c-4.2,0-7.7-0.4-10.5-1.1s-5-2-6.7-3.7c-1.7-1.8-2.9-4.1-3.5-7c-0.7-2.9-1-6.5-1-10.7V92.6
	c0-4.2,0.3-7.8,1-10.7c0.7-2.9,1.9-5.2,3.5-7c1.7-1.8,3.9-3,6.7-3.7c2.8-0.7,6.3-1.1,10.5-1.1h36.7c4.1,0,7.6,0.4,10.4,1.1
	s5,2,6.7,3.7c1.7,1.8,2.9,4.1,3.6,7c0.7,2.9,1.1,6.5,1.1,10.7V117c0,4.2-0.4,7.8-1.1,10.7c-0.7,2.9-1.9,5.2-3.6,7s-3.9,3-6.7,3.7
	s-6.2,1.1-10.4,1.1h-36.7V139.6z M158.5,92.7c0-3.4-0.6-5.8-1.8-7c-1.2-1.2-3.3-1.9-6.4-1.9h-36.6c-3,0-5.2,0.6-6.4,1.9
	c-1.2,1.2-1.8,3.6-1.8,7v24.4c0,1.8,0.1,3.2,0.4,4.3c0.3,1.1,0.7,2,1.4,2.7c0.6,0.7,1.5,1.1,2.5,1.4s2.3,0.4,3.9,0.4h36.6
	c3.1,0,5.2-0.6,6.4-1.8c1.2-1.2,1.8-3.5,1.8-7L158.5,92.7L158.5,92.7z"/>
<path class="st1" d="M251.7,139.5L197.3,87v52.5h-12.5V70h14.9l53.1,52.8V70h13.6v69.5"/>
<path class="st1" d="M391.8,139.6c-3.8,0-7.1-0.4-9.7-1.2c-2.7-0.8-4.8-2.1-6.5-3.9s-2.8-4.1-3.6-6.8c-0.7-2.8-1.1-6.1-1.1-10.1
	V70.1h13.5v47.5c0,3,0.6,5.1,1.7,6.4s3,2,5.7,2h33.9c2.7,0,4.6-0.7,5.7-2c1.1-1.3,1.7-3.5,1.7-6.4V70.1h13.6v47.5
	c0,4-0.4,7.3-1.1,10.1c-0.7,2.8-1.9,5-3.6,6.8s-3.8,3.1-6.5,3.9c-2.7,0.8-6,1.2-9.8,1.2H391.8z"/>
<path class="st1" d="M530.2,119.5c0,3.7-0.4,6.8-1.2,9.4c-0.8,2.6-2.1,4.6-3.9,6.2c-1.8,1.6-4.1,2.7-7,3.4
	c-2.9,0.7-6.4,1.1-10.5,1.1h-49.1c0.1-2.3,0.3-4.6,0.5-6.8c0.2-2.3,0.3-4.5,0.5-6.8h47.3c1.8,0,3.3-0.1,4.6-0.4
	c1.2-0.2,2.2-0.7,2.9-1.3c0.7-0.6,1.2-1.4,1.5-2.4c0.3-1,0.5-2.2,0.5-3.7c0-2.9-0.6-4.9-1.9-6c-1.3-1.1-3.7-1.7-7.3-1.7h-28.2
	c-4.2,0-7.7-0.4-10.5-1.1s-5-1.9-6.8-3.4c-1.7-1.5-2.9-3.5-3.7-5.9c-0.7-2.4-1.1-5.1-1.1-8.3v-2.3c0-3.4,0.4-6.4,1.1-8.9
	s2-4.5,3.7-6.1c1.8-1.5,4.1-2.7,6.9-3.4c2.9-0.7,6.4-1.1,10.7-1.1h48.7c-0.3,2.4-0.5,4.7-0.8,6.9c-0.3,2.3-0.6,4.6-0.9,6.9h-47
	c-3.4,0-5.6,0.6-6.8,1.7s-1.8,3.1-1.8,5.9c0,2.8,0.6,4.7,1.8,5.9c1.2,1.2,3.4,1.8,6.8,1.8H507c4.3,0,7.9,0.4,10.9,1.1
	s5.4,1.8,7.2,3.3c1.8,1.5,3.1,3.3,3.9,5.6c0.8,2.3,1.2,4.9,1.2,7.9V119.5L530.2,119.5z"/>
<g id="Linhas_Guias">
</g>
<polygon class="st1" points="311.2,139.4 324,139.4 324,82.8 357.5,82.8 357.5,70.1 277.7,70.1 277.7,82.8 311.7,82.8 "/>
<g>
	<path class="st1" d="M285.4,55h-3.9l-5.4-14.2h-21.8c-0.8,2.2-1.6,4.6-2.5,7.1c-0.9,2.5-1.8,4.9-2.6,7.1h-3.4
		c1.5-3.8,2.9-7.6,4.3-11.2c1.4-3.7,2.8-7.3,4.2-10.9c1.4-3.6,2.8-7.3,4.2-10.9c1.4-3.7,2.9-7.4,4.3-11.2h4.6L285.4,55z M275.1,38.2
		l-10.3-24.6l-9.7,24.6H275.1z"/>
	<path class="st1" d="M311,9.9c3,0,5.8,0.5,8.4,1.6c2.6,1.1,4.8,2.6,6.6,4.6c1.8,2,3.3,4.4,4.3,7.2c1,2.8,1.6,5.9,1.6,9.4
		c0,3.7-0.6,7-1.7,10c-1.2,3-2.8,5.5-4.9,7.5l7,5.5c-0.4,0.5-0.7,0.9-1,1.3c-0.3,0.4-0.6,0.7-0.9,1.1l-7.5-5.9
		c-1.6,1.2-3.5,2-5.4,2.6c-2,0.6-4.1,0.9-6.4,0.9c-3.1,0-5.9-0.6-8.5-1.7c-2.6-1.1-4.8-2.7-6.6-4.7c-1.8-2-3.3-4.4-4.3-7.3
		c-1-2.8-1.5-6-1.5-9.4c0-3.5,0.5-6.6,1.6-9.4c1-2.8,2.5-5.2,4.3-7.2s4.1-3.5,6.6-4.6C305.2,10.4,308,9.9,311,9.9z M311,52.6
		c1.7,0,3.4-0.2,4.9-0.6s3-1,4.3-1.8l-4.9-3.8c0.5-0.5,0.8-1,1.1-1.3c0.3-0.3,0.6-0.7,0.9-1.1l5.5,4.4c1.8-1.7,3.2-3.8,4.2-6.5
		c1-2.6,1.5-5.6,1.5-9.1c0-3.2-0.4-6-1.3-8.4c-0.9-2.4-2.1-4.5-3.6-6.1c-1.6-1.7-3.4-2.9-5.5-3.8c-2.1-0.8-4.4-1.3-6.9-1.3
		c-2.6,0-4.9,0.4-7.1,1.3c-2.1,0.9-4,2.1-5.6,3.8c-1.6,1.7-2.8,3.7-3.7,6.1c-0.9,2.4-1.3,5.2-1.3,8.4s0.4,6,1.3,8.4
		c0.9,2.5,2.1,4.6,3.6,6.2c1.6,1.7,3.4,3,5.5,3.9C306.1,52.1,308.4,52.6,311,52.6z"/>
	<path class="st1" d="M358.1,55.8c-2.6,0-4.9-0.3-6.8-0.8c-1.9-0.6-3.4-1.3-4.7-2.2c-1.2-0.9-2.2-2-3-3.3c-0.7-1.3-1.3-2.6-1.7-4
		c-0.4-1.4-0.6-2.9-0.7-4.4c-0.1-1.5-0.1-3-0.1-4.5V10.7h3.2v25.6c0,3.4,0.3,6.1,0.9,8.2c0.6,2.1,1.5,3.8,2.7,5
		c1.2,1.2,2.6,2,4.3,2.4c1.7,0.4,3.6,0.6,5.8,0.6c2.2,0,4.2-0.2,5.9-0.6c1.7-0.4,3.1-1.2,4.3-2.4c1.1-1.2,2-2.9,2.6-5
		c0.6-2.1,0.9-4.8,0.9-8.2V10.7h3.2v25.7c0,3-0.3,5.8-0.8,8.2c-0.5,2.4-1.4,4.4-2.7,6.1c-1.3,1.7-3,2.9-5.2,3.8
		C364.3,55.4,361.5,55.8,358.1,55.8z"/>
	<path class="st1" d="M391.2,55H388V10.7h3.2V55z"/>
	<path class="st1" d="M436.3,22.6c-0.3-1.3-0.8-2.6-1.7-3.7c-0.8-1.1-1.8-2.1-3-3s-2.6-1.5-4.2-2c-1.6-0.5-3.3-0.7-5.1-0.7
		c-2.6,0-4.9,0.4-7,1.3c-2.1,0.8-3.9,2.1-5.3,3.7c-1.5,1.6-2.6,3.7-3.4,6.1c-0.8,2.4-1.2,5.3-1.2,8.5s0.4,6.1,1.2,8.6
		c0.8,2.5,1.9,4.5,3.4,6.2c1.5,1.7,3.2,2.9,5.3,3.8c2.1,0.9,4.4,1.3,6.9,1.3c3.8,0,7-0.9,9.5-2.6c2.5-1.7,4-4.2,4.6-7.5h3.4
		c-0.3,2.1-1,4-2,5.6c-1,1.7-2.3,3.1-3.8,4.2c-1.5,1.1-3.3,2-5.2,2.6c-2,0.6-4.1,0.9-6.4,0.9c-3.1,0-5.9-0.5-8.4-1.6
		c-2.5-1.1-4.6-2.6-6.4-4.6c-1.8-2-3.1-4.4-4-7.3c-0.9-2.8-1.4-6-1.4-9.6c0-3.5,0.5-6.7,1.4-9.5c0.9-2.8,2.3-5.2,4.1-7.2
		c1.8-2,3.9-3.5,6.4-4.6c2.5-1.1,5.3-1.6,8.4-1.6c2.1,0,4.2,0.3,6.1,0.9c1.9,0.6,3.7,1.5,5.2,2.6c1.5,1.1,2.8,2.5,3.9,4
		c1.1,1.6,1.8,3.3,2.2,5.1H436.3z"/>
	<path class="st1" d="M468.2,9.9c3,0,5.8,0.5,8.4,1.6c2.6,1.1,4.8,2.6,6.6,4.6c1.8,2,3.3,4.4,4.3,7.2c1,2.8,1.6,5.9,1.6,9.4
		c0,3.4-0.5,6.6-1.5,9.4c-1,2.8-2.5,5.3-4.3,7.3c-1.8,2-4,3.6-6.6,4.7c-2.5,1.1-5.4,1.7-8.4,1.7s-5.9-0.6-8.5-1.7
		c-2.6-1.1-4.8-2.7-6.6-4.7c-1.8-2-3.3-4.4-4.3-7.3c-1-2.8-1.5-6-1.5-9.4c0-3.5,0.5-6.6,1.6-9.4c1-2.8,2.5-5.2,4.3-7.2
		s4.1-3.5,6.6-4.6C462.4,10.4,465.2,9.9,468.2,9.9z M468.2,52.6c2.5,0,4.9-0.4,7-1.3c2.1-0.9,4-2.2,5.6-3.9c1.6-1.7,2.8-3.8,3.6-6.2
		c0.9-2.5,1.3-5.3,1.3-8.4c0-3.2-0.4-6-1.3-8.4c-0.9-2.4-2.1-4.5-3.6-6.1c-1.6-1.7-3.4-2.9-5.5-3.8c-2.1-0.8-4.4-1.3-6.9-1.3
		c-2.6,0-4.9,0.4-7.1,1.3c-2.1,0.9-4,2.1-5.6,3.8c-1.6,1.7-2.8,3.7-3.7,6.1c-0.9,2.4-1.3,5.2-1.3,8.4s0.4,6,1.3,8.4
		c0.9,2.5,2.1,4.6,3.6,6.2c1.6,1.7,3.4,3,5.5,3.9C463.3,52.1,465.6,52.6,468.2,52.6z"/>
	<path class="st1" d="M530.6,42.6c0,4-1.4,7.1-4.1,9.2s-6.7,3.2-12,3.2h-16.1V10.7h16c4.4,0,7.9,0.8,10.2,2.5
		c2.4,1.7,3.5,4.4,3.5,8.1c0,1-0.1,2.1-0.3,3.2c-0.2,1.1-0.6,2.1-1.1,3.1c-0.5,0.9-1.3,1.8-2.2,2.5c-0.9,0.7-2.2,1.3-3.6,1.6
		c2.1,0.2,3.7,0.6,5,1.4c1.3,0.7,2.2,1.6,2.9,2.6c0.7,1,1.1,2.2,1.4,3.4C530.5,40.2,530.6,41.4,530.6,42.6z M501.7,30.2h11.9
		c3.9,0,6.8-0.6,8.7-1.9c1.9-1.3,2.8-3.4,2.8-6.4c0-2.7-0.9-4.7-2.6-6c-1.7-1.3-4.5-2-8.3-2l-12.5,0V30.2z M501.7,51.8h12.8
		c8.4,0,12.5-3.1,12.5-9.2c0-1.6-0.2-3-0.6-4.1c-0.4-1.2-1.2-2.1-2.2-2.9c-1-0.7-2.4-1.3-4.1-1.7c-1.7-0.4-3.9-0.5-6.5-0.5h-11.9
		V51.8z"/>
</g>
</svg>
